<svg width="17" height="16" viewBox="0 0 17 16" fill="none" xmlns="http://www.w3.org/2000/svg">
<path d="M15.5102 3.91837H12.7347V1.14286C12.7347 0.839752 12.6143 0.549062 12.4 0.334735C12.1856 0.120408 11.8949 0 11.5918 0H1.14286C0.839752 0 0.549062 0.120408 0.334735 0.334735C0.120408 0.549062 0 0.839752 0 1.14286V11.5918C0.000107487 11.6843 0.0263828 11.7748 0.0757878 11.853C0.125193 11.9311 0.195709 11.9937 0.279184 12.0335C0.344796 12.0654 0.416838 12.0818 0.489796 12.0816C0.601776 12.0817 0.710393 12.0434 0.797551 11.9731L3.89469 9.46939H3.91837V12.2449C3.91837 12.548 4.03877 12.8387 4.2531 13.053C4.46743 13.2673 4.75812 13.3878 5.06122 13.3878H12.7584L15.8555 15.8914C15.9427 15.9617 16.0513 16.0001 16.1633 16C16.2362 16.0002 16.3083 15.9837 16.3739 15.9518C16.4573 15.9121 16.5279 15.8495 16.5773 15.7714C16.6267 15.6932 16.653 15.6027 16.6531 15.5102V5.06122C16.6531 4.75812 16.5327 4.46743 16.3183 4.2531C16.104 4.03877 15.8133 3.91837 15.5102 3.91837ZM3.72082 8.48979C3.60884 8.48974 3.50022 8.52806 3.41306 8.59837L0.979592 10.5657V1.14286C0.979592 1.09956 0.996793 1.05803 1.02741 1.02741C1.05803 0.996793 1.09956 0.979592 1.14286 0.979592H11.5918C11.6351 0.979592 11.6767 0.996793 11.7073 1.02741C11.7379 1.05803 11.7551 1.09956 11.7551 1.14286V8.32653C11.7551 8.36983 11.7379 8.41136 11.7073 8.44198C11.6767 8.47259 11.6351 8.48979 11.5918 8.48979H3.72082ZM15.6735 14.4841L13.24 12.5167C13.1528 12.4464 13.0442 12.4081 12.9322 12.4082H5.06122C5.01792 12.4082 4.9764 12.391 4.94578 12.3603C4.91516 12.3297 4.89796 12.2882 4.89796 12.2449V9.46939H11.5918C11.8949 9.46939 12.1856 9.34898 12.4 9.13465C12.6143 8.92032 12.7347 8.62963 12.7347 8.32653V4.89796H15.5102C15.5535 4.89796 15.595 4.91516 15.6256 4.94578C15.6563 4.9764 15.6735 5.01792 15.6735 5.06122V14.4841Z" fill="black"/>
</svg>
