<svg width="17" height="16" viewBox="0 0 17 16" fill="none" xmlns="http://www.w3.org/2000/svg">
<path d="M16.64 5.12C16.64 4.78052 16.5051 4.45495 16.2651 4.2149C16.025 3.97486 15.6995 3.84 15.36 3.84H12.8V1.28C12.8 0.940523 12.6651 0.61495 12.4251 0.374903C12.1851 0.134857 11.8595 0 11.52 0H1.28C0.940523 0 0.61495 0.134857 0.374903 0.374903C0.134857 0.61495 0 0.940523 0 1.28V11.52C0.00037577 11.6404 0.0347098 11.7583 0.0990576 11.86C0.163405 11.9618 0.255157 12.0434 0.363771 12.0953C0.472385 12.1473 0.593456 12.1676 0.713075 12.1538C0.832694 12.1401 0.946008 12.0929 1.04 12.0176L3.84 9.76V12.16C3.84 12.4995 3.97486 12.825 4.2149 13.0651C4.45495 13.3051 4.78052 13.44 5.12 13.44H12.6072L15.6 15.8576C15.7132 15.9492 15.8543 15.9994 16 16C16.1697 16 16.3325 15.9326 16.4525 15.8125C16.5726 15.6925 16.64 15.5297 16.64 15.36V5.12ZM13.236 12.3024C13.1228 12.2108 12.9817 12.1606 12.836 12.16H5.12V9.6H11.52C11.8595 9.6 12.1851 9.46514 12.4251 9.2251C12.6651 8.98505 12.8 8.65948 12.8 8.32V5.12H15.36V14.02L13.236 12.3024Z" fill="#ED1C24"/>
</svg>
