<svg width="28" height="28" viewBox="0 0 28 28" fill="none" xmlns="http://www.w3.org/2000/svg">
<circle cx="14" cy="14" r="14" fill="white"/>
<path d="M12.7163 6.9998C12.8358 6.7044 13.0408 6.45142 13.3051 6.27329C13.5693 6.09516 13.8807 6 14.1994 6C14.518 6 14.8294 6.09516 15.0937 6.27329C15.3579 6.45142 15.5629 6.7044 15.6824 6.9998C16.8655 7.32475 17.9091 8.02928 18.6528 9.00508C19.3965 9.98088 19.7991 11.1739 19.7988 12.4008V16.158L21.2642 18.3562C21.3446 18.4767 21.3908 18.6167 21.3978 18.7613C21.4048 18.906 21.3724 19.0498 21.3041 19.1775C21.2358 19.3052 21.1341 19.412 21.0099 19.4864C20.8856 19.5608 20.7435 19.6001 20.5987 19.6001H16.9711C16.8748 20.2665 16.5416 20.8759 16.0325 21.3166C15.5235 21.7574 14.8727 22 14.1994 22C13.526 22 12.8752 21.7574 12.3662 21.3166C11.8572 20.8759 11.524 20.2665 11.4277 19.6001H7.80004C7.65522 19.6001 7.51311 19.5608 7.38887 19.4864C7.26464 19.412 7.16293 19.3052 7.09461 19.1775C7.02629 19.0498 6.99392 18.906 7.00094 18.7613C7.00797 18.6167 7.05413 18.4767 7.13451 18.3562L8.59995 16.158V12.4008C8.59995 9.8219 10.3438 7.64933 12.7163 6.9998ZM13.0683 19.6001C13.1509 19.8342 13.3041 20.0369 13.5067 20.1803C13.7094 20.3236 13.9515 20.4006 14.1998 20.4006C14.448 20.4006 14.6901 20.3236 14.8928 20.1803C15.0954 20.0369 15.2486 19.8342 15.3312 19.6001H13.0683ZM14.1994 8.40125C13.1386 8.40125 12.1213 8.82263 11.3712 9.5727C10.6212 10.3228 10.1998 11.3401 10.1998 12.4008V16.4004C10.1998 16.5584 10.1531 16.7129 10.0654 16.8444L9.29508 18.0002H19.1028L18.3325 16.8444C18.2452 16.7128 18.1987 16.5583 18.1989 16.4004V12.4008C18.1989 11.3401 17.7776 10.3228 17.0275 9.5727C16.2774 8.82263 15.2601 8.40125 14.1994 8.40125Z" fill="#3D3A3A"/>
</svg>
