<svg width="16" height="16" viewBox="0 0 16 16" fill="none" xmlns="http://www.w3.org/2000/svg">
<path d="M0 1.77778V14.2222C0 14.6937 0.187301 15.1459 0.520699 15.4793C0.854097 15.8127 1.30628 16 1.77778 16H14.2222C14.6937 16 15.1459 15.8127 15.4793 15.4793C15.8127 15.1459 16 14.6937 16 14.2222V1.77778C16 1.30628 15.8127 0.854097 15.4793 0.520699C15.1459 0.187301 14.6937 0 14.2222 0H1.77778C1.30628 0 0.854097 0.187301 0.520699 0.520699C0.187301 0.854097 0 1.30628 0 1.77778ZM6.22222 3.55556H13.3333V5.33333H6.22222V3.55556ZM6.22222 7.11111H13.3333V8.88889H6.22222V7.11111ZM6.22222 10.6667H13.3333V12.4444H6.22222V10.6667ZM2.66667 3.55556H4.44444V5.33333H2.66667V3.55556ZM2.66667 7.11111H4.44444V8.88889H2.66667V7.11111ZM2.66667 10.6667H4.44444V12.4444H2.66667V10.6667Z" fill="#ED1C24"/>
</svg>
