<svg width="16" height="16" viewBox="0 0 16 16" fill="none" xmlns="http://www.w3.org/2000/svg">
<path d="M16 1.77778C16 0.797333 15.2027 0 14.2222 0H1.77778C0.797333 0 0 0.797333 0 1.77778V14.2222C0 15.2027 0.797333 16 1.77778 16H14.2222C15.2027 16 16 15.2027 16 14.2222V1.77778ZM1.77778 14.2222V1.77778H14.2222L14.224 14.2222H1.77778Z" fill="black"/>
<path d="M3.55554 3.55566H5.33154V5.33344H3.55554V3.55566ZM7.1111 3.55566H12.4444V5.33344H7.1111V3.55566ZM3.55554 7.11122H5.33154V8.889H3.55554V7.11122ZM7.1111 7.11122H12.4444V8.889H7.1111V7.11122ZM3.55554 10.6668H5.33154V12.4446H3.55554V10.6668ZM7.1111 10.6668H12.4444V12.4446H7.1111V10.6668Z" fill="black"/>
</svg>
