<svg width="18" height="16" viewBox="0 0 18 16" fill="none" xmlns="http://www.w3.org/2000/svg">
<path d="M7.88914 0C7.67019 0 7.45124 0.0505264 7.24072 0.126316L1.04282 2.69474C0.630832 2.86345 0.302705 3.18886 0.130579 3.59944C-0.0415461 4.01001 -0.0435793 4.47214 0.124927 4.88421L4.30177 14.9474C4.42514 15.2526 4.63527 15.515 4.90616 15.702C5.17706 15.8891 5.49684 15.9927 5.82598 16C6.04493 16 6.2723 15.9747 6.49124 15.8737L12.6976 13.3053C12.9971 13.1781 13.2539 12.9678 13.4375 12.6991C13.6211 12.4304 13.7238 12.1147 13.7333 11.7895C13.7418 11.5789 13.6997 11.3347 13.6239 11.1158L9.41335 1.05263C9.29472 0.744172 9.08577 0.478686 8.81383 0.290883C8.5419 0.103081 8.21962 0.00170114 7.88914 0ZM10.8197 0L13.7249 7.03158V1.68421C13.7249 1.23753 13.5475 0.809144 13.2316 0.493294C12.9158 0.177443 12.4874 0 12.0407 0M15.4176 1.29684V8.90105L17.4639 3.96632C17.5478 3.76233 17.5906 3.54379 17.5898 3.32322C17.5891 3.10266 17.5448 2.88442 17.4595 2.681C17.3742 2.47759 17.2496 2.29301 17.0929 2.13786C16.9361 1.9827 16.7503 1.86002 16.546 1.77684M7.88914 1.65895L12.0828 11.7811L5.85966 14.3579L1.66598 4.24421" fill="black"/>
</svg>
