<svg width="14" height="16" viewBox="0 0 14 16" fill="none" xmlns="http://www.w3.org/2000/svg">
<path d="M6.85714 0C5.34162 0 3.88817 0.602039 2.81653 1.67368C1.7449 2.74531 1.14286 4.19876 1.14286 5.71429C1.14286 7.18629 1.95352 8.60952 2.87086 9.76457C3.80038 10.9356 4.91124 11.92 5.65562 12.5242C6.36114 13.0956 7.35314 13.0956 8.05867 12.5242C8.80305 11.92 9.91391 10.9356 10.8434 9.76457C11.7608 8.61029 12.5714 7.18629 12.5714 5.71429C12.5714 4.19876 11.9694 2.74531 10.8978 1.67368C9.82612 0.602039 8.37267 0 6.85714 0ZM8.7619 5.71429C8.7619 6.21946 8.56122 6.70394 8.20401 7.06116C7.8468 7.41837 7.36232 7.61905 6.85714 7.61905C6.35197 7.61905 5.86749 7.41837 5.51027 7.06116C5.15306 6.70394 4.95238 6.21946 4.95238 5.71429C4.95238 5.20911 5.15306 4.72463 5.51027 4.36742C5.86749 4.0102 6.35197 3.80952 6.85714 3.80952C7.36232 3.80952 7.8468 4.0102 8.20401 4.36742C8.56122 4.72463 8.7619 5.20911 8.7619 5.71429ZM11.1863 10.5501C10.909 10.8792 10.6225 11.1916 10.3375 11.4819C10.6093 11.5581 10.8607 11.6419 11.0918 11.7333C11.6221 11.9421 12.0114 12.1752 12.259 12.4069C12.5067 12.637 12.5714 12.8213 12.5714 12.9524C12.5714 13.0834 12.5067 13.2678 12.259 13.4979C12.0114 13.7288 11.6221 13.9627 11.0926 14.1714C10.0366 14.5874 8.54019 14.8571 6.85714 14.8571C5.1741 14.8571 3.67771 14.5874 2.62171 14.1714C2.09219 13.9634 1.70286 13.7295 1.45448 13.4979C1.20762 13.2678 1.14286 13.0834 1.14286 12.9524C1.14286 12.8213 1.20762 12.637 1.45524 12.4069C1.70286 12.176 2.09219 11.9421 2.62171 11.7333C2.85384 11.6419 3.10527 11.5581 3.376 11.4819C3.08176 11.182 2.79889 10.8712 2.528 10.5501C2.41676 10.5882 2.30832 10.6281 2.20267 10.6697C1.59467 10.9097 1.06438 11.2084 0.67581 11.5703C0.287238 11.933 0 12.3992 0 12.9524C0 13.5055 0.286476 13.9718 0.67581 14.3345C1.06438 14.6964 1.59467 14.9958 2.20267 15.235C3.42248 15.715 5.06819 16 6.85714 16C8.6461 16 10.2918 15.7158 11.5109 15.235C12.1196 14.9958 12.6499 14.6964 13.0385 14.3345C13.427 13.9718 13.7143 13.5055 13.7143 12.9524C13.7143 12.3992 13.4278 11.933 13.0385 11.5703C12.6499 11.2091 12.1196 10.9097 11.5109 10.6697C11.4057 10.6286 11.2975 10.5887 11.1863 10.5501Z" fill="#ED1C24"/>
</svg>
