<svg width="14" height="16" viewBox="0 0 14 16" fill="none" xmlns="http://www.w3.org/2000/svg">
<path d="M6.85714 1.14286C5.64472 1.14286 4.48196 1.62449 3.62466 2.4818C2.76735 3.33911 2.28571 4.50187 2.28571 5.71429C2.28571 6.79162 2.89676 7.95962 3.7661 9.05448C4.62248 10.1333 5.66248 11.0575 6.37562 11.6366C6.51097 11.7488 6.68129 11.8103 6.85714 11.8103C7.03299 11.8103 7.20331 11.7488 7.33867 11.6366C8.05181 11.0575 9.09181 10.1333 9.94819 9.05371C10.819 7.96038 11.4286 6.79238 11.4286 5.71429C11.4286 4.50187 10.9469 3.33911 10.0896 2.4818C9.23232 1.62449 8.06956 1.14286 6.85714 1.14286ZM1.14286 5.71429C1.14286 4.19876 1.7449 2.74531 2.81653 1.67368C3.88817 0.602039 5.34162 0 6.85714 0C8.37267 0 9.82612 0.602039 10.8978 1.67368C11.9694 2.74531 12.5714 4.19876 12.5714 5.71429C12.5714 7.18629 11.7608 8.60952 10.8434 9.76457C9.91391 10.9356 8.80305 11.92 8.05867 12.5242C7.35314 13.0956 6.36114 13.0956 5.65562 12.5242C4.91124 11.92 3.80038 10.9356 2.87086 9.76457C1.95352 8.61029 1.14286 7.18629 1.14286 5.71429ZM6.85714 4.57143C6.55404 4.57143 6.26335 4.69184 6.04902 4.90616C5.83469 5.12049 5.71429 5.41118 5.71429 5.71429C5.71429 6.01739 5.83469 6.30808 6.04902 6.52241C6.26335 6.73674 6.55404 6.85714 6.85714 6.85714C7.16025 6.85714 7.45094 6.73674 7.66527 6.52241C7.87959 6.30808 8 6.01739 8 5.71429C8 5.41118 7.87959 5.12049 7.66527 4.90616C7.45094 4.69184 7.16025 4.57143 6.85714 4.57143ZM4.57143 5.71429C4.57143 5.10808 4.81224 4.5267 5.2409 4.09804C5.66955 3.66939 6.25093 3.42857 6.85714 3.42857C7.46335 3.42857 8.04473 3.66939 8.47339 4.09804C8.90204 4.5267 9.14286 5.10808 9.14286 5.71429C9.14286 6.3205 8.90204 6.90188 8.47339 7.33053C8.04473 7.75918 7.46335 8 6.85714 8C6.25093 8 5.66955 7.75918 5.2409 7.33053C4.81224 6.90188 4.57143 6.3205 4.57143 5.71429ZM11.1863 10.5493C10.909 10.8792 10.6225 11.1909 10.3375 11.4819C10.6093 11.5581 10.8607 11.6419 11.0918 11.7333C11.6221 11.9413 12.0114 12.1752 12.259 12.4069C12.5067 12.637 12.5714 12.8213 12.5714 12.9524C12.5714 13.0834 12.5067 13.2678 12.259 13.4979C12.0114 13.7288 11.6221 13.9627 11.0926 14.1714C10.0366 14.5874 8.54019 14.8571 6.85714 14.8571C5.1741 14.8571 3.67771 14.5874 2.62171 14.1714C2.09219 13.9627 1.70286 13.7288 1.45448 13.4979C1.20762 13.2678 1.14286 13.0834 1.14286 12.9524C1.14286 12.8213 1.20762 12.637 1.45524 12.4069C1.70286 12.176 2.09219 11.9421 2.62171 11.7333C2.85384 11.6419 3.10527 11.5581 3.376 11.4819C3.09181 11.1909 2.80457 10.8792 2.528 10.5493C2.41676 10.5884 2.30832 10.6286 2.20267 10.6697C1.59467 10.909 1.06438 11.2084 0.67581 11.5703C0.287238 11.933 0 12.3992 0 12.9524C0 13.5055 0.286476 13.9718 0.67581 14.3345C1.06438 14.6956 1.59467 14.995 2.20267 15.235C3.42248 15.715 5.06819 16 6.85714 16C8.6461 16 10.2918 15.715 11.5109 15.235C12.1196 14.995 12.6499 14.6956 13.0385 14.3345C13.427 13.9718 13.7143 13.5055 13.7143 12.9524C13.7143 12.3992 13.4278 11.933 13.0385 11.5703C12.6499 11.2084 12.1196 10.909 11.5109 10.6697C11.4057 10.6281 11.2975 10.5879 11.1863 10.5493Z" fill="black"/>
</svg>
