<svg width="31" height="31" viewBox="0 0 31 31" fill="none" xmlns="http://www.w3.org/2000/svg">
<circle cx="14" cy="17" r="14" fill="white"/>
<path d="M21.36 12.84H18.8V10.28C18.8 9.94052 18.6651 9.61495 18.4251 9.3749C18.1851 9.13486 17.8595 9 17.52 9H7.28C6.94052 9 6.61495 9.13486 6.3749 9.3749C6.13486 9.61495 6 9.94052 6 10.28V20.52C6.00038 20.6404 6.03471 20.7583 6.09906 20.86C6.16341 20.9618 6.25516 21.0434 6.36377 21.0953C6.47239 21.1473 6.59346 21.1676 6.71308 21.1538C6.83269 21.1401 6.94601 21.0929 7.04 21.0176L9.84 18.76V21.16C9.84 21.4995 9.97486 21.825 10.2149 22.0651C10.4549 22.3051 10.7805 22.44 11.12 22.44H18.6072L21.6 24.8576C21.7132 24.9492 21.8543 24.9994 22 25C22.1697 25 22.3325 24.9326 22.4525 24.8125C22.5726 24.6925 22.64 24.5297 22.64 24.36V14.12C22.64 13.7805 22.5051 13.4549 22.2651 13.2149C22.025 12.9749 21.6995 12.84 21.36 12.84ZM9.404 17.4624L7.28 19.18V10.28H17.52V17.32H9.8064C9.65992 17.32 9.51789 17.3703 9.404 17.4624ZM21.36 23.02L19.236 21.3024C19.1228 21.2108 18.9817 21.1606 18.836 21.16H11.12V18.6H17.52C17.8595 18.6 18.1851 18.4651 18.4251 18.2251C18.6651 17.985 18.8 17.6595 18.8 17.32V14.12H21.36V23.02Z" fill="black"/>
<circle cx="25.5" cy="5.5" r="5.5" fill="#F7FF83"/>
<path d="M23.984 6.76C24.496 6.31733 24.8987 5.95467 25.192 5.672C25.4907 5.384 25.7387 5.08533 25.936 4.776C26.1333 4.46667 26.232 4.15733 26.232 3.848C26.232 3.528 26.1547 3.27733 26 3.096C25.8507 2.91467 25.6133 2.824 25.288 2.824C24.9733 2.824 24.728 2.92533 24.552 3.128C24.3813 3.32533 24.2907 3.592 24.28 3.928H23.4C23.416 3.32 23.5973 2.856 23.944 2.536C24.296 2.21067 24.7413 2.048 25.28 2.048C25.8613 2.048 26.3147 2.208 26.64 2.528C26.9707 2.848 27.136 3.27467 27.136 3.808C27.136 4.192 27.0373 4.56267 26.84 4.92C26.648 5.272 26.416 5.58933 26.144 5.872C25.8773 6.14933 25.536 6.472 25.12 6.84L24.76 7.16H27.296V7.92H23.408V7.256L23.984 6.76Z" fill="black"/>
</svg>
