<svg width="25" height="25" viewBox="0 0 25 25" fill="none" xmlns="http://www.w3.org/2000/svg">
<circle cx="12.5" cy="12.5" r="12.5" fill="#F1F1F1"/>
<path d="M7.21324 17.8989C4.25892 14.9445 4.25892 10.1673 7.21324 7.21303C10.1676 4.25871 14.9447 4.25871 17.8991 7.21303C20.8534 10.1673 20.8534 14.9445 17.8991 17.8989C14.9447 20.8532 10.1676 20.8532 7.21324 17.8989ZM17.2705 7.84161C14.6619 5.23301 10.4504 5.23301 7.84182 7.84161C5.23322 10.4502 5.23322 14.6617 7.84182 17.2703C10.4504 19.8789 14.6619 19.8789 17.2705 17.2703C19.8791 14.6617 19.8791 10.4502 17.2705 7.84161Z" fill="black"/>
<path d="M14.6305 15.6989L14.6305 10.4817L9.41331 10.4817L9.41331 9.60164L15.5105 9.60164L15.5105 15.6989H14.6305Z" fill="black"/>
<path d="M14.7561 9.72733L15.3847 10.3559L10.0418 15.6988L9.41319 15.0702L14.7561 9.72733Z" fill="black"/>
</svg>
