<svg width="19" height="16" viewBox="0 0 19 16" fill="none" xmlns="http://www.w3.org/2000/svg">
<path fill-rule="evenodd" clip-rule="evenodd" d="M2.27824 4.08549L7.76291 0.245033C8.05736 0.0389197 8.42162 -0.0418111 8.77558 0.020593C9.12954 0.0829971 9.44423 0.283427 9.65044 0.577807L10.5156 1.813C10.5282 1.83108 10.5403 1.84949 10.5518 1.86824L2.27824 4.08549ZM0.421206 8.53932L0.0460723 7.13909C-0.0468544 6.79181 0.00197812 6.42184 0.181828 6.11057C0.361677 5.7993 0.657811 5.57222 1.00509 5.47928L14.7525 1.79572C15.0998 1.70267 15.4697 1.75136 15.7811 1.93108C16.0924 2.1108 16.3196 2.40683 16.4127 2.75406L16.8027 4.21054C16.8578 4.41616 16.8512 4.63345 16.7836 4.83532C16.7161 5.03719 16.5906 5.21472 16.4228 5.34577C16.1592 5.55138 15.9623 5.83039 15.8568 6.14767C15.7514 6.46495 15.7422 6.80633 15.8303 7.12885C15.9184 7.45136 16.1 7.7406 16.3522 7.96017C16.6043 8.17973 16.9158 8.3198 17.2473 8.36276C17.4521 8.38948 17.6444 8.47636 17.7997 8.61238C17.9551 8.74841 18.0667 8.92748 18.1203 9.12692L18.5174 10.6102C18.6105 10.9574 18.5618 11.3274 18.3821 11.6387C18.2023 11.95 17.9063 12.1772 17.5591 12.2703L3.81096 15.9539C3.46378 16.0468 3.09389 15.9981 2.78264 15.8184C2.47138 15.6387 2.24424 15.3427 2.15116 14.9955L1.77738 13.6001C1.7183 13.3805 1.72398 13.1485 1.79372 12.932C1.86347 12.7156 1.9943 12.5239 2.17047 12.3801C2.42362 12.1735 2.61162 11.8981 2.71185 11.587C2.81207 11.276 2.82024 10.9427 2.73537 10.6271C2.6505 10.3115 2.47621 10.0273 2.2335 9.80847C1.99078 9.58968 1.68999 9.44573 1.36734 9.39396C1.14414 9.35795 0.936114 9.25819 0.768309 9.10668C0.600504 8.95516 0.480081 8.75837 0.421545 8.53999M12.4441 6.27326C12.5746 6.24012 12.6972 6.18139 12.8048 6.10049C12.9124 6.01958 13.0029 5.91811 13.0709 5.80196C13.139 5.68581 13.1833 5.5573 13.2013 5.42389C13.2193 5.29047 13.2107 5.15481 13.1758 5.02478C13.141 4.89474 13.0806 4.77292 12.9983 4.66639C12.916 4.55985 12.8134 4.47073 12.6963 4.40419C12.5793 4.33764 12.4502 4.29501 12.3166 4.27875C12.183 4.26249 12.0474 4.27294 11.9179 4.30949C11.6606 4.38206 11.4422 4.55305 11.3101 4.78543C11.178 5.01781 11.1427 5.29288 11.2119 5.55109C11.2811 5.8093 11.4492 6.02986 11.6798 6.16503C11.9104 6.30019 12.185 6.33908 12.4441 6.27326ZM13.1456 8.89208C13.2746 8.85755 13.3955 8.79795 13.5014 8.7167C13.6073 8.63544 13.6962 8.53411 13.763 8.4185C13.8298 8.30289 13.8731 8.17526 13.8906 8.04289C13.908 7.91053 13.8992 7.77603 13.8647 7.64706C13.8301 7.5181 13.7706 7.39719 13.6893 7.29126C13.608 7.18533 13.5067 7.09644 13.3911 7.02966C13.2755 6.96289 13.1479 6.91954 13.0155 6.90209C12.8831 6.88464 12.7486 6.89344 12.6197 6.92797C12.3592 6.99776 12.1371 7.16815 12.0023 7.40167C11.8675 7.63519 11.8309 7.9127 11.9007 8.17316C11.9705 8.43362 12.1409 8.65569 12.3744 8.79051C12.608 8.92534 12.8851 8.96187 13.1456 8.89208ZM13.8477 11.5106C13.9786 11.4778 14.1016 11.4193 14.2096 11.3385C14.3176 11.2577 14.4084 11.1562 14.4768 11.0399C14.5452 10.9237 14.5897 10.795 14.6079 10.6613C14.6261 10.5277 14.6174 10.3917 14.5825 10.2615C14.5477 10.1312 14.4872 10.0091 14.4047 9.90244C14.3221 9.79576 14.2192 9.70656 14.1019 9.64005C13.9845 9.57353 13.8551 9.53103 13.7212 9.51502C13.5873 9.49901 13.4515 9.50981 13.3218 9.54679C13.0652 9.61994 12.8477 9.79102 12.7161 10.0231C12.5846 10.2552 12.5495 10.5297 12.6185 10.7875C12.6875 11.0452 12.8551 11.2654 13.0851 11.4007C13.315 11.536 13.5889 11.5754 13.8477 11.5106Z" fill="#ED1C24"/>
</svg>
