<svg width="19" height="16" viewBox="0 0 19 16" fill="none" xmlns="http://www.w3.org/2000/svg">
<path fill-rule="evenodd" clip-rule="evenodd" d="M16.4126 2.75397L16.8029 4.21046C16.8549 4.40484 16.8518 4.60985 16.7939 4.80256C16.7361 4.99526 16.6257 5.16807 16.4752 5.30165L16.4227 5.3457C16.1641 5.54747 15.9695 5.81997 15.8627 6.13014C15.7559 6.44031 15.7414 6.77481 15.821 7.09306C15.9006 7.4113 16.0708 7.69961 16.311 7.923C16.5513 8.14639 16.8512 8.29526 17.1744 8.35154L17.2475 8.36272C17.4523 8.38951 17.6445 8.47641 17.7998 8.61243C17.9551 8.74845 18.0666 8.92749 18.1202 9.12689L18.5177 10.6098C18.5638 10.7818 18.5756 10.9611 18.5524 11.1376C18.5292 11.3142 18.4714 11.4844 18.3824 11.6386C18.2935 11.7928 18.175 11.9279 18.0337 12.0363C17.8925 12.1447 17.7313 12.2242 17.5593 12.2703L3.81108 15.9539C3.46384 16.0468 3.09391 15.9981 2.78265 15.8183C2.47138 15.6385 2.24427 15.3424 2.15126 14.9952L1.77748 13.6001C1.72196 13.3924 1.72409 13.1736 1.78361 12.9671C1.84314 12.7605 1.95782 12.5741 2.11534 12.4279L2.17057 12.3804C2.42383 12.1738 2.61193 11.8984 2.71222 11.5873C2.81251 11.2762 2.82071 10.9428 2.73584 10.6272C2.65096 10.3116 2.47662 10.0272 2.23383 9.80839C1.99104 9.58958 1.69016 9.44564 1.36744 9.39392C1.14423 9.35792 0.936203 9.25815 0.768396 9.10664C0.60059 8.95513 0.480167 8.75833 0.42163 8.53995L0.0461539 7.13937C9.03536e-05 6.9674 -0.0116422 6.78803 0.0116263 6.61152C0.0348949 6.435 0.0927087 6.2648 0.181766 6.11064C0.270823 5.95647 0.389378 5.82136 0.530661 5.71302C0.671943 5.60468 0.833184 5.52523 1.00518 5.47922L14.7524 1.79562C14.9244 1.7495 15.1037 1.7377 15.2802 1.7609C15.4567 1.7841 15.627 1.84184 15.7812 1.93084C15.9354 2.01983 16.0705 2.13833 16.1789 2.27956C16.2873 2.4208 16.3668 2.582 16.4129 2.75397M15.0015 2.95967L1.3715 6.61174C1.18343 6.66224 1.0716 6.85573 1.12209 7.04381L1.39014 8.04451C1.9698 8.1613 2.50533 8.43763 2.93641 8.84237C3.36749 9.2471 3.67699 9.76417 3.83005 10.3353C3.98314 10.9065 3.97368 11.5091 3.80274 12.0752C3.6318 12.6413 3.30618 13.1484 2.86256 13.5394L3.13061 14.5401C3.18144 14.7282 3.3746 14.84 3.56268 14.7895L17.1923 11.1374C17.3804 11.087 17.4922 10.8935 17.4417 10.7054L17.174 9.70501C16.5943 9.5882 16.0588 9.31182 15.6277 8.90702C15.1966 8.50222 14.8871 7.98508 14.7341 7.41387C14.581 6.84271 14.5904 6.24015 14.7613 5.67405C14.9321 5.10796 15.2577 4.60083 15.7013 4.20978L15.4332 3.20908C15.4212 3.16431 15.4006 3.12234 15.3724 3.08556C15.3442 3.04879 15.309 3.01794 15.2689 2.99477C15.2288 2.9716 15.1845 2.95658 15.1385 2.95055C15.0926 2.94453 15.0462 2.94763 15.0015 2.95967ZM14.5664 10.2655C14.6009 10.3945 14.6097 10.529 14.5922 10.6614C14.5748 10.7937 14.5314 10.9213 14.4647 11.037C14.3979 11.1526 14.309 11.2539 14.2031 11.3352C14.0971 11.4164 13.9762 11.476 13.8473 11.5105C13.7183 11.5451 13.5838 11.5539 13.4514 11.5364C13.3191 11.519 13.1914 11.4756 13.0758 11.4089C12.9602 11.3421 12.8589 11.2532 12.7776 11.1473C12.6964 11.0413 12.6368 10.9204 12.6022 10.7915C12.5325 10.531 12.5691 10.2535 12.7039 10.02C12.8388 9.78652 13.0609 9.61616 13.3213 9.54642C13.5818 9.47667 13.8593 9.51326 14.0928 9.64811C14.3263 9.78297 14.4966 10.0051 14.5664 10.2655ZM13.8649 7.64667C13.9347 7.90713 13.8981 8.18465 13.7633 8.41817C13.6285 8.65169 13.4064 8.82209 13.146 8.89188C12.8855 8.96167 12.608 8.92513 12.3745 8.7903C12.1409 8.65548 11.9705 8.43341 11.9007 8.17295C11.8349 7.91386 11.8738 7.63926 12.009 7.40863C12.1441 7.178 12.3647 7.00988 12.6229 6.94068C12.8811 6.87148 13.1562 6.90677 13.3886 7.03891C13.621 7.17104 13.7923 7.38939 13.8649 7.64667ZM13.1627 5.02817C13.1973 5.15714 13.2061 5.29165 13.1887 5.42402C13.1712 5.5564 13.1279 5.68404 13.0612 5.79967C12.9944 5.9153 12.9055 6.01664 12.7996 6.09792C12.6937 6.1792 12.5728 6.23882 12.4438 6.27337C12.3148 6.30793 12.1803 6.31675 12.0479 6.29932C11.9156 6.28189 11.7879 6.23856 11.6723 6.1718C11.5567 6.10504 11.4553 6.01616 11.374 5.91024C11.2928 5.80431 11.2332 5.68341 11.1986 5.55445C11.1288 5.29399 11.1653 5.01647 11.3002 4.78295C11.435 4.54943 11.6571 4.37903 11.9175 4.30924C12.178 4.23946 12.4555 4.27599 12.689 4.41082C12.9225 4.54564 13.0929 4.76771 13.1627 5.02817ZM9.65094 0.578039L10.5158 1.81291C10.5284 1.83121 10.5405 1.84973 10.552 1.86848L2.27834 4.08542L7.76306 0.244923C8.05755 0.0388425 8.42184 -0.0418346 8.77581 0.0206342C9.12978 0.0831029 9.44478 0.283602 9.65094 0.578039Z" fill="black"/>
</svg>
