<svg width="38" height="38" viewBox="0 0 38 38" fill="none" xmlns="http://www.w3.org/2000/svg">
<path d="M1 10V5.5C1 4.30653 1.47411 3.16193 2.31802 2.31802C3.16193 1.47411 4.30653 1 5.5 1H10M1 28V32.5C1 33.6935 1.47411 34.8381 2.31802 35.682C3.16193 36.5259 4.30653 37 5.5 37H10M28 1H32.5C33.6935 1 34.8381 1.47411 35.682 2.31802C36.5259 3.16193 37 4.30653 37 5.5V10M28 37H32.5C33.6935 37 34.8381 36.5259 35.682 35.682C36.5259 34.8381 37 33.6935 37 32.5V28M7.75 19H30.25" stroke="black" stroke-width="2" stroke-linecap="round" stroke-linejoin="round"/>
</svg>
